# xmcd
#
# Track frame offsets:
# 183
# 14533
# 27208
# 40383
# 53308
# 66220
# 79283
# 91408
# 103183
# 112083
# 125308
# 138633
# 150208
# 163333
# 175608
# 188508
#
# Disc length: 2659 seconds
#
#
# Revision: 3
# Processed by: cddbd v1.5.1PL0 Copyright (c) Steve Scherf et al.
# Submitted via: FreeRIP 2.942 
#
DISCID=cc0a6110
DTITLE=Platters, The - More Golden Hits
DYEAR=1961
DGENRE=Pop
TTITLE0=If I Didn't Care
TTITLE1=I Wish
TTITLE2=Enchanted
TTITLE3=Remember When
TTITLE4=To Each His Own
TTITLE5=Only Because
TTITLE6=My Dream
TTITLE7=Heaven on Earth
TTITLE8=You'll Never, Never Know
TTITLE9=One in a Million
TTITLE10=I'm Sorry
TTITLE11=Trees
TTITLE12=I'll Never Smile Again
TTITLE13=Helpless
TTITLE14=It's Raining Outside
TTITLE15=It Isn't Right
EXTD=Updated with corrections by Larry@AustinViews.com
EXTT0=
EXTT1=
EXTT2=
EXTT3=
EXTT4=
EXTT5=
EXTT6=
EXTT7=
EXTT8=
EXTT9=
EXTT10=
EXTT11=
EXTT12=
EXTT13=
EXTT14=
EXTT15=
PLAYORDER=
